<?xml version="1.0" encoding="UTF-8" standalone="no"?>
<!DOCTYPE svg PUBLIC "-//W3C//DTD SVG 1.1//EN"
 "http://www.w3.org/Graphics/SVG/1.1/DTD/svg11.dtd">
<!-- Generated by graphviz version 2.38.0 (20140413.2041)
 -->
<!-- Title: Tree Pages: 1 -->
<svg width="869pt" height="581pt"
 viewBox="0.00 0.00 869.00 581.00" xmlns="http://www.w3.org/2000/svg" xmlns:xlink="http://www.w3.org/1999/xlink">
<g id="graph0" class="graph" transform="scale(1 1) rotate(0) translate(4 577)">
<title>Tree</title>
<polygon fill="white" stroke="none" points="-4,4 -4,-577 865,-577 865,4 -4,4"/>
<!-- 0 -->
<g id="node1" class="node"><title>0</title>
<path fill="#ffffff" stroke="black" d="M516,-573C516,-573 389,-573 389,-573 383,-573 377,-567 377,-561 377,-561 377,-517 377,-517 377,-511 383,-505 389,-505 389,-505 516,-505 516,-505 522,-505 528,-511 528,-517 528,-517 528,-561 528,-561 528,-567 522,-573 516,-573"/>
<text text-anchor="start" x="385" y="-557.8" font-family="Helvetica,sans-Serif" font-size="14.00">petal width (cm) ≤ 0.8</text>
<text text-anchor="start" x="415" y="-542.8" font-family="Helvetica,sans-Serif" font-size="14.00">gini = 0.667</text>
<text text-anchor="start" x="405" y="-527.8" font-family="Helvetica,sans-Serif" font-size="14.00">samples = 150</text>
<text text-anchor="start" x="392" y="-512.8" font-family="Helvetica,sans-Serif" font-size="14.00">value = [50, 50, 50]</text>
</g>
<!-- 1 -->
<g id="node2" class="node"><title>1</title>
<path fill="#e58139" stroke="black" d="M422,-461.5C422,-461.5 325,-461.5 325,-461.5 319,-461.5 313,-455.5 313,-449.5 313,-449.5 313,-420.5 313,-420.5 313,-414.5 319,-408.5 325,-408.5 325,-408.5 422,-408.5 422,-408.5 428,-408.5 434,-414.5 434,-420.5 434,-420.5 434,-449.5 434,-449.5 434,-455.5 428,-461.5 422,-461.5"/>
<text text-anchor="start" x="344.5" y="-446.3" font-family="Helvetica,sans-Serif" font-size="14.00">gini = 0.0</text>
<text text-anchor="start" x="330" y="-431.3" font-family="Helvetica,sans-Serif" font-size="14.00">samples = 50</text>
<text text-anchor="start" x="321" y="-416.3" font-family="Helvetica,sans-Serif" font-size="14.00">value = [50, 0, 0]</text>
</g>
<!-- 0&#45;&gt;1 -->
<g id="edge1" class="edge"><title>0&#45;&gt;1</title>
<path fill="none" stroke="black" d="M426.851,-504.884C418.077,-493.556 408.26,-480.88 399.462,-469.521"/>
<polygon fill="black" stroke="black" points="402.156,-467.283 393.265,-461.52 396.622,-471.569 402.156,-467.283"/>
<text text-anchor="middle" x="390.114" y="-482.621" font-family="Helvetica,sans-Serif" font-size="14.00">True</text>
</g>
<!-- 2 -->
<g id="node3" class="node"><title>2</title>
<path fill="#ffffff" stroke="black" d="M599,-469C599,-469 464,-469 464,-469 458,-469 452,-463 452,-457 452,-457 452,-413 452,-413 452,-407 458,-401 464,-401 464,-401 599,-401 599,-401 605,-401 611,-407 611,-413 611,-413 611,-457 611,-457 611,-463 605,-469 599,-469"/>
<text text-anchor="start" x="460" y="-453.8" font-family="Helvetica,sans-Serif" font-size="14.00">petal width (cm) ≤ 1.75</text>
<text text-anchor="start" x="502.5" y="-438.8" font-family="Helvetica,sans-Serif" font-size="14.00">gini = 0.5</text>
<text text-anchor="start" x="484" y="-423.8" font-family="Helvetica,sans-Serif" font-size="14.00">samples = 100</text>
<text text-anchor="start" x="475" y="-408.8" font-family="Helvetica,sans-Serif" font-size="14.00">value = [0, 50, 50]</text>
</g>
<!-- 0&#45;&gt;2 -->
<g id="edge2" class="edge"><title>0&#45;&gt;2</title>
<path fill="none" stroke="black" d="M478.149,-504.884C484.979,-496.065 492.441,-486.43 499.563,-477.235"/>
<polygon fill="black" stroke="black" points="502.353,-479.349 505.709,-469.299 496.819,-475.062 502.353,-479.349"/>
<text text-anchor="middle" x="508.861" y="-490.4" font-family="Helvetica,sans-Serif" font-size="14.00">False</text>
</g>
<!-- 3 -->
<g id="node4" class="node"><title>3</title>
<path fill="#4de88e" stroke="black" d="M488,-365C488,-365 347,-365 347,-365 341,-365 335,-359 335,-353 335,-353 335,-309 335,-309 335,-303 341,-297 347,-297 347,-297 488,-297 488,-297 494,-297 500,-303 500,-309 500,-309 500,-353 500,-353 500,-359 494,-365 488,-365"/>
<text text-anchor="start" x="343" y="-349.8" font-family="Helvetica,sans-Serif" font-size="14.00">petal length (cm) ≤ 4.95</text>
<text text-anchor="start" x="380" y="-334.8" font-family="Helvetica,sans-Serif" font-size="14.00">gini = 0.168</text>
<text text-anchor="start" x="374" y="-319.8" font-family="Helvetica,sans-Serif" font-size="14.00">samples = 54</text>
<text text-anchor="start" x="365" y="-304.8" font-family="Helvetica,sans-Serif" font-size="14.00">value = [0, 49, 5]</text>
</g>
<!-- 2&#45;&gt;3 -->
<g id="edge3" class="edge"><title>2&#45;&gt;3</title>
<path fill="none" stroke="black" d="M494.487,-400.884C484.234,-391.709 472.991,-381.65 462.343,-372.123"/>
<polygon fill="black" stroke="black" points="464.503,-369.359 454.717,-365.299 459.836,-374.576 464.503,-369.359"/>
</g>
<!-- 12 -->
<g id="node13" class="node"><title>12</title>
<path fill="#843de6" stroke="black" d="M715,-365C715,-365 574,-365 574,-365 568,-365 562,-359 562,-353 562,-353 562,-309 562,-309 562,-303 568,-297 574,-297 574,-297 715,-297 715,-297 721,-297 727,-303 727,-309 727,-309 727,-353 727,-353 727,-359 721,-365 715,-365"/>
<text text-anchor="start" x="570" y="-349.8" font-family="Helvetica,sans-Serif" font-size="14.00">petal length (cm) ≤ 4.85</text>
<text text-anchor="start" x="607" y="-334.8" font-family="Helvetica,sans-Serif" font-size="14.00">gini = 0.043</text>
<text text-anchor="start" x="601" y="-319.8" font-family="Helvetica,sans-Serif" font-size="14.00">samples = 46</text>
<text text-anchor="start" x="592" y="-304.8" font-family="Helvetica,sans-Serif" font-size="14.00">value = [0, 1, 45]</text>
</g>
<!-- 2&#45;&gt;12 -->
<g id="edge12" class="edge"><title>2&#45;&gt;12</title>
<path fill="none" stroke="black" d="M568.188,-400.884C578.352,-391.709 589.495,-381.65 600.05,-372.123"/>
<polygon fill="black" stroke="black" points="602.532,-374.598 607.61,-365.299 597.841,-369.402 602.532,-374.598"/>
</g>
<!-- 4 -->
<g id="node5" class="node"><title>4</title>
<path fill="#3de684" stroke="black" d="M263,-261C263,-261 128,-261 128,-261 122,-261 116,-255 116,-249 116,-249 116,-205 116,-205 116,-199 122,-193 128,-193 128,-193 263,-193 263,-193 269,-193 275,-199 275,-205 275,-205 275,-249 275,-249 275,-255 269,-261 263,-261"/>
<text text-anchor="start" x="124" y="-245.8" font-family="Helvetica,sans-Serif" font-size="14.00">petal width (cm) ≤ 1.65</text>
<text text-anchor="start" x="158" y="-230.8" font-family="Helvetica,sans-Serif" font-size="14.00">gini = 0.041</text>
<text text-anchor="start" x="152" y="-215.8" font-family="Helvetica,sans-Serif" font-size="14.00">samples = 48</text>
<text text-anchor="start" x="143" y="-200.8" font-family="Helvetica,sans-Serif" font-size="14.00">value = [0, 47, 1]</text>
</g>
<!-- 3&#45;&gt;4 -->
<g id="edge4" class="edge"><title>3&#45;&gt;4</title>
<path fill="none" stroke="black" d="M345.423,-296.884C323.502,-286.812 299.261,-275.674 276.778,-265.344"/>
<polygon fill="black" stroke="black" points="278.143,-262.119 267.595,-261.125 275.221,-268.48 278.143,-262.119"/>
</g>
<!-- 7 -->
<g id="node8" class="node"><title>7</title>
<path fill="#c09cf2" stroke="black" d="M485,-261C485,-261 350,-261 350,-261 344,-261 338,-255 338,-249 338,-249 338,-205 338,-205 338,-199 344,-193 350,-193 350,-193 485,-193 485,-193 491,-193 497,-199 497,-205 497,-205 497,-249 497,-249 497,-255 491,-261 485,-261"/>
<text text-anchor="start" x="346" y="-245.8" font-family="Helvetica,sans-Serif" font-size="14.00">petal width (cm) ≤ 1.55</text>
<text text-anchor="start" x="380" y="-230.8" font-family="Helvetica,sans-Serif" font-size="14.00">gini = 0.444</text>
<text text-anchor="start" x="378" y="-215.8" font-family="Helvetica,sans-Serif" font-size="14.00">samples = 6</text>
<text text-anchor="start" x="369" y="-200.8" font-family="Helvetica,sans-Serif" font-size="14.00">value = [0, 2, 4]</text>
</g>
<!-- 3&#45;&gt;7 -->
<g id="edge7" class="edge"><title>3&#45;&gt;7</title>
<path fill="none" stroke="black" d="M417.5,-296.884C417.5,-288.778 417.5,-279.982 417.5,-271.472"/>
<polygon fill="black" stroke="black" points="421,-271.299 417.5,-261.299 414,-271.299 421,-271.299"/>
</g>
<!-- 5 -->
<g id="node6" class="node"><title>5</title>
<path fill="#39e581" stroke="black" d="M109,-149.5C109,-149.5 12,-149.5 12,-149.5 6,-149.5 0,-143.5 0,-137.5 0,-137.5 0,-108.5 0,-108.5 0,-102.5 6,-96.5 12,-96.5 12,-96.5 109,-96.5 109,-96.5 115,-96.5 121,-102.5 121,-108.5 121,-108.5 121,-137.5 121,-137.5 121,-143.5 115,-149.5 109,-149.5"/>
<text text-anchor="start" x="31.5" y="-134.3" font-family="Helvetica,sans-Serif" font-size="14.00">gini = 0.0</text>
<text text-anchor="start" x="17" y="-119.3" font-family="Helvetica,sans-Serif" font-size="14.00">samples = 47</text>
<text text-anchor="start" x="8" y="-104.3" font-family="Helvetica,sans-Serif" font-size="14.00">value = [0, 47, 0]</text>
</g>
<!-- 4&#45;&gt;5 -->
<g id="edge5" class="edge"><title>4&#45;&gt;5</title>
<path fill="none" stroke="black" d="M151.669,-192.884C135.803,-180.896 117.94,-167.399 102.257,-155.549"/>
<polygon fill="black" stroke="black" points="104.365,-152.756 94.2764,-149.52 100.145,-158.341 104.365,-152.756"/>
</g>
<!-- 6 -->
<g id="node7" class="node"><title>6</title>
<path fill="#8139e5" stroke="black" d="M240,-149.5C240,-149.5 151,-149.5 151,-149.5 145,-149.5 139,-143.5 139,-137.5 139,-137.5 139,-108.5 139,-108.5 139,-102.5 145,-96.5 151,-96.5 151,-96.5 240,-96.5 240,-96.5 246,-96.5 252,-102.5 252,-108.5 252,-108.5 252,-137.5 252,-137.5 252,-143.5 246,-149.5 240,-149.5"/>
<text text-anchor="start" x="166.5" y="-134.3" font-family="Helvetica,sans-Serif" font-size="14.00">gini = 0.0</text>
<text text-anchor="start" x="156" y="-119.3" font-family="Helvetica,sans-Serif" font-size="14.00">samples = 1</text>
<text text-anchor="start" x="147" y="-104.3" font-family="Helvetica,sans-Serif" font-size="14.00">value = [0, 0, 1]</text>
</g>
<!-- 4&#45;&gt;6 -->
<g id="edge6" class="edge"><title>4&#45;&gt;6</title>
<path fill="none" stroke="black" d="M195.5,-192.884C195.5,-182.326 195.5,-170.597 195.5,-159.854"/>
<polygon fill="black" stroke="black" points="199,-159.52 195.5,-149.52 192,-159.52 199,-159.52"/>
</g>
<!-- 8 -->
<g id="node9" class="node"><title>8</title>
<path fill="#8139e5" stroke="black" d="M371,-149.5C371,-149.5 282,-149.5 282,-149.5 276,-149.5 270,-143.5 270,-137.5 270,-137.5 270,-108.5 270,-108.5 270,-102.5 276,-96.5 282,-96.5 282,-96.5 371,-96.5 371,-96.5 377,-96.5 383,-102.5 383,-108.5 383,-108.5 383,-137.5 383,-137.5 383,-143.5 377,-149.5 371,-149.5"/>
<text text-anchor="start" x="297.5" y="-134.3" font-family="Helvetica,sans-Serif" font-size="14.00">gini = 0.0</text>
<text text-anchor="start" x="287" y="-119.3" font-family="Helvetica,sans-Serif" font-size="14.00">samples = 3</text>
<text text-anchor="start" x="278" y="-104.3" font-family="Helvetica,sans-Serif" font-size="14.00">value = [0, 0, 3]</text>
</g>
<!-- 7&#45;&gt;8 -->
<g id="edge8" class="edge"><title>7&#45;&gt;8</title>
<path fill="none" stroke="black" d="M387.955,-192.884C377.751,-181.446 366.32,-168.634 356.111,-157.19"/>
<polygon fill="black" stroke="black" points="358.537,-154.652 349.268,-149.52 353.313,-159.312 358.537,-154.652"/>
</g>
<!-- 9 -->
<g id="node10" class="node"><title>9</title>
<path fill="#9cf2c0" stroke="black" d="M558,-157C558,-157 413,-157 413,-157 407,-157 401,-151 401,-145 401,-145 401,-101 401,-101 401,-95 407,-89 413,-89 413,-89 558,-89 558,-89 564,-89 570,-95 570,-101 570,-101 570,-145 570,-145 570,-151 564,-157 558,-157"/>
<text text-anchor="start" x="409" y="-141.8" font-family="Helvetica,sans-Serif" font-size="14.00">sepal length (cm) ≤ 6.95</text>
<text text-anchor="start" x="448" y="-126.8" font-family="Helvetica,sans-Serif" font-size="14.00">gini = 0.444</text>
<text text-anchor="start" x="446" y="-111.8" font-family="Helvetica,sans-Serif" font-size="14.00">samples = 3</text>
<text text-anchor="start" x="437" y="-96.8" font-family="Helvetica,sans-Serif" font-size="14.00">value = [0, 2, 1]</text>
</g>
<!-- 7&#45;&gt;9 -->
<g id="edge9" class="edge"><title>7&#45;&gt;9</title>
<path fill="none" stroke="black" d="M439.578,-192.884C445.338,-184.243 451.621,-174.819 457.638,-165.793"/>
<polygon fill="black" stroke="black" points="460.666,-167.561 463.3,-157.299 454.841,-163.678 460.666,-167.561"/>
</g>
<!-- 10 -->
<g id="node11" class="node"><title>10</title>
<path fill="#39e581" stroke="black" d="M464,-53C464,-53 375,-53 375,-53 369,-53 363,-47 363,-41 363,-41 363,-12 363,-12 363,-6 369,-0 375,-0 375,-0 464,-0 464,-0 470,-0 476,-6 476,-12 476,-12 476,-41 476,-41 476,-47 470,-53 464,-53"/>
<text text-anchor="start" x="390.5" y="-37.8" font-family="Helvetica,sans-Serif" font-size="14.00">gini = 0.0</text>
<text text-anchor="start" x="380" y="-22.8" font-family="Helvetica,sans-Serif" font-size="14.00">samples = 2</text>
<text text-anchor="start" x="371" y="-7.8" font-family="Helvetica,sans-Serif" font-size="14.00">value = [0, 2, 0]</text>
</g>
<!-- 9&#45;&gt;10 -->
<g id="edge10" class="edge"><title>9&#45;&gt;10</title>
<path fill="none" stroke="black" d="M462.416,-88.9485C456.219,-80.0749 449.507,-70.4648 443.273,-61.5388"/>
<polygon fill="black" stroke="black" points="446.07,-59.4311 437.475,-53.2367 440.331,-63.4392 446.07,-59.4311"/>
</g>
<!-- 11 -->
<g id="node12" class="node"><title>11</title>
<path fill="#8139e5" stroke="black" d="M595,-53C595,-53 506,-53 506,-53 500,-53 494,-47 494,-41 494,-41 494,-12 494,-12 494,-6 500,-0 506,-0 506,-0 595,-0 595,-0 601,-0 607,-6 607,-12 607,-12 607,-41 607,-41 607,-47 601,-53 595,-53"/>
<text text-anchor="start" x="521.5" y="-37.8" font-family="Helvetica,sans-Serif" font-size="14.00">gini = 0.0</text>
<text text-anchor="start" x="511" y="-22.8" font-family="Helvetica,sans-Serif" font-size="14.00">samples = 1</text>
<text text-anchor="start" x="502" y="-7.8" font-family="Helvetica,sans-Serif" font-size="14.00">value = [0, 0, 1]</text>
</g>
<!-- 9&#45;&gt;11 -->
<g id="edge11" class="edge"><title>9&#45;&gt;11</title>
<path fill="none" stroke="black" d="M508.234,-88.9485C514.337,-80.0749 520.947,-70.4648 527.087,-61.5388"/>
<polygon fill="black" stroke="black" points="530.014,-63.4594 532.798,-53.2367 524.247,-59.4924 530.014,-63.4594"/>
</g>
<!-- 13 -->
<g id="node14" class="node"><title>13</title>
<path fill="#c09cf2" stroke="black" d="M710,-261C710,-261 579,-261 579,-261 573,-261 567,-255 567,-249 567,-249 567,-205 567,-205 567,-199 573,-193 579,-193 579,-193 710,-193 710,-193 716,-193 722,-199 722,-205 722,-205 722,-249 722,-249 722,-255 716,-261 710,-261"/>
<text text-anchor="start" x="575" y="-245.8" font-family="Helvetica,sans-Serif" font-size="14.00">sepal width (cm) ≤ 3.1</text>
<text text-anchor="start" x="607" y="-230.8" font-family="Helvetica,sans-Serif" font-size="14.00">gini = 0.444</text>
<text text-anchor="start" x="605" y="-215.8" font-family="Helvetica,sans-Serif" font-size="14.00">samples = 3</text>
<text text-anchor="start" x="596" y="-200.8" font-family="Helvetica,sans-Serif" font-size="14.00">value = [0, 1, 2]</text>
</g>
<!-- 12&#45;&gt;13 -->
<g id="edge13" class="edge"><title>12&#45;&gt;13</title>
<path fill="none" stroke="black" d="M644.5,-296.884C644.5,-288.778 644.5,-279.982 644.5,-271.472"/>
<polygon fill="black" stroke="black" points="648,-271.299 644.5,-261.299 641,-271.299 648,-271.299"/>
</g>
<!-- 16 -->
<g id="node17" class="node"><title>16</title>
<path fill="#8139e5" stroke="black" d="M849,-253.5C849,-253.5 752,-253.5 752,-253.5 746,-253.5 740,-247.5 740,-241.5 740,-241.5 740,-212.5 740,-212.5 740,-206.5 746,-200.5 752,-200.5 752,-200.5 849,-200.5 849,-200.5 855,-200.5 861,-206.5 861,-212.5 861,-212.5 861,-241.5 861,-241.5 861,-247.5 855,-253.5 849,-253.5"/>
<text text-anchor="start" x="771.5" y="-238.3" font-family="Helvetica,sans-Serif" font-size="14.00">gini = 0.0</text>
<text text-anchor="start" x="757" y="-223.3" font-family="Helvetica,sans-Serif" font-size="14.00">samples = 43</text>
<text text-anchor="start" x="748" y="-208.3" font-family="Helvetica,sans-Serif" font-size="14.00">value = [0, 0, 43]</text>
</g>
<!-- 12&#45;&gt;16 -->
<g id="edge16" class="edge"><title>12&#45;&gt;16</title>
<path fill="none" stroke="black" d="M695.149,-296.884C713.651,-284.786 734.504,-271.151 752.746,-259.224"/>
<polygon fill="black" stroke="black" points="755.015,-261.922 761.47,-253.52 751.184,-256.063 755.015,-261.922"/>
</g>
<!-- 14 -->
<g id="node15" class="node"><title>14</title>
<path fill="#8139e5" stroke="black" d="M689,-149.5C689,-149.5 600,-149.5 600,-149.5 594,-149.5 588,-143.5 588,-137.5 588,-137.5 588,-108.5 588,-108.5 588,-102.5 594,-96.5 600,-96.5 600,-96.5 689,-96.5 689,-96.5 695,-96.5 701,-102.5 701,-108.5 701,-108.5 701,-137.5 701,-137.5 701,-143.5 695,-149.5 689,-149.5"/>
<text text-anchor="start" x="615.5" y="-134.3" font-family="Helvetica,sans-Serif" font-size="14.00">gini = 0.0</text>
<text text-anchor="start" x="605" y="-119.3" font-family="Helvetica,sans-Serif" font-size="14.00">samples = 2</text>
<text text-anchor="start" x="596" y="-104.3" font-family="Helvetica,sans-Serif" font-size="14.00">value = [0, 0, 2]</text>
</g>
<!-- 13&#45;&gt;14 -->
<g id="edge14" class="edge"><title>13&#45;&gt;14</title>
<path fill="none" stroke="black" d="M644.5,-192.884C644.5,-182.326 644.5,-170.597 644.5,-159.854"/>
<polygon fill="black" stroke="black" points="648,-159.52 644.5,-149.52 641,-159.52 648,-159.52"/>
</g>
<!-- 15 -->
<g id="node16" class="node"><title>15</title>
<path fill="#39e581" stroke="black" d="M820,-149.5C820,-149.5 731,-149.5 731,-149.5 725,-149.5 719,-143.5 719,-137.5 719,-137.5 719,-108.5 719,-108.5 719,-102.5 725,-96.5 731,-96.5 731,-96.5 820,-96.5 820,-96.5 826,-96.5 832,-102.5 832,-108.5 832,-108.5 832,-137.5 832,-137.5 832,-143.5 826,-149.5 820,-149.5"/>
<text text-anchor="start" x="746.5" y="-134.3" font-family="Helvetica,sans-Serif" font-size="14.00">gini = 0.0</text>
<text text-anchor="start" x="736" y="-119.3" font-family="Helvetica,sans-Serif" font-size="14.00">samples = 1</text>
<text text-anchor="start" x="727" y="-104.3" font-family="Helvetica,sans-Serif" font-size="14.00">value = [0, 1, 0]</text>
</g>
<!-- 13&#45;&gt;15 -->
<g id="edge15" class="edge"><title>13&#45;&gt;15</title>
<path fill="none" stroke="black" d="M687.032,-192.884C702.287,-181.006 719.444,-167.646 734.561,-155.876"/>
<polygon fill="black" stroke="black" points="736.984,-158.425 742.724,-149.52 732.684,-152.902 736.984,-158.425"/>
</g>
</g>
</svg>
